<?xml version="1.0" encoding="UTF-8" standalone="no"?><!DOCTYPE svg PUBLIC "-//W3C//DTD SVG 1.1//EN" "http://www.w3.org/Graphics/SVG/1.1/DTD/svg11.dtd"><svg width="100%" height="100%" viewBox="0 0 750 750" version="1.1" xmlns="http://www.w3.org/2000/svg" xmlns:xlink="http://www.w3.org/1999/xlink" xml:space="preserve" xmlns:serif="http://www.serif.com/" style="fill-rule:evenodd;clip-rule:evenodd;stroke-linejoin:round;stroke-miterlimit:2;"><rect id="Outline-Logo" serif:id="Outline Logo" x="0" y="0" width="750" height="750" style="fill:none;"/><g id="Outline-Logo1" serif:id="Outline Logo"><g id="Layer-1" serif:id="Layer 1"><path d="M118.817,342.64c-0.633,-25.334 15.596,-46.767 35.038,-61.575c43.45,-32.554 99.312,-38.442 151.491,-27.817c54.296,11.225 106.042,38.829 145.321,77.892c56.913,56.316 65.296,144.129 120.179,202.004c11.871,13.225 25.038,25.142 38.48,36.758c9.595,8.296 19.337,16.446 28.845,24.817c5.088,4.337 14.246,12.467 14.542,17.129c0.208,7.375 -13.875,1.388 -17.65,-0.029c-9.946,-4.179 -20.129,-8.004 -30.242,-11.825c-5.066,-1.692 -13.25,-4.8 -16.12,1.467c-1.75,3.916 -1,9.658 -0.634,14.125c2.288,20.22 1.667,40.47 1.542,60.733c-0.088,5.817 -0.329,12.329 -2.479,17.617c-2.2,5.925 -7.734,7.779 -12,3.008c-8.621,-10.833 -9.167,-25.854 -12.334,-39.013c-5.829,-31.225 -14.825,-61.587 -27.554,-90.616c-35.346,-91.113 -151.191,-111.725 -239.004,-123.359c-67.725,-6.75 -172.692,-13.783 -177.417,-100.908l-0.004,-0.408Z" style="fill:none;fill-rule:nonzero;stroke:#0035b2;stroke-width:8.33px;"/><path d="M563.006,171.648c-3.958,59.8 -61.516,144.671 -129.2,116.783c-16.012,-7.045 -26.4,-19.57 -25.962,-38.825c-12.633,-91.975 165.167,-227.254 155.162,-77.958" style="fill:none;fill-rule:nonzero;stroke:#008bcf;stroke-width:8.33px;"/><path d="M397.873,138.448c-1.525,19.279 -6.837,40.004 -14.616,56.921c-19.984,43.471 -54.821,59.642 -78.654,24.804c-12.417,-18.612 -19.413,-42.2 -22.163,-64.008c-5.162,-42.188 9.9,-120.517 63.271,-121.996c44.329,1.342 54.987,67.746 52.196,103.837l-0.034,0.442Z" style="fill:none;fill-rule:nonzero;stroke:#008bcf;stroke-width:8.33px;"/><path d="M195.768,233.203c-13.675,-9.408 -21.408,-24.604 -25.279,-40.521c-5.141,-21.691 -3.862,-46.829 9.275,-65.15c8.15,-11.141 21.746,-18.175 35.313,-15.062c56.462,14.358 54.154,167.133 -18.975,120.962l-0.334,-0.229Z" style="fill:none;fill-rule:nonzero;stroke:#008bcf;stroke-width:8.33px;"/><path d="M589.741,320.919c0.392,14.162 -4.808,27.67 -12.808,39.195c-11.546,16.921 -29.93,29.2 -50.492,23.205c-12.283,-3.438 -23.467,-12.646 -28.296,-24.53c-18.883,-56.479 86.908,-117.429 91.583,-38.279l0.013,0.409Z" style="fill:none;fill-rule:nonzero;stroke:#008bcf;stroke-width:8.33px;"/></g></g></svg>